<svg width="48" height="48" viewBox="0 0 48 48" fill="none" xmlns="http://www.w3.org/2000/svg">
<path d="M39.5715 8.47591H47.5742L39.0983 0V8.00277C39.0983 8.26413 39.3101 8.47591 39.5715 8.47591Z" fill="white"/>
<path d="M36.3443 9.85291V0L11.1093 0.0679321C10.3492 0.0679321 9.7323 0.684829 9.7323 1.44493V7.03465C12.0741 5.15274 14.9622 4.13101 18.009 4.13101C21.5497 4.13101 24.8784 5.51168 27.38 8.01783C31.1318 11.7752 32.1572 17.2447 30.4562 21.9375H40.6974C41.4575 21.9375 42.0744 22.5544 42.0744 23.3145C42.0744 24.0746 41.4575 24.6915 40.6974 24.6915H29.0746C28.5908 25.4268 28.0253 26.1245 27.38 26.7708C24.8784 29.2778 21.5497 30.6585 18.009 30.6585C16.7963 30.6585 15.6093 30.4969 14.471 30.183L9.7323 34.93V45.6926C9.7323 46.4527 10.3492 47.0696 11.1093 47.0696L46.1972 47.0017C46.9573 47.0017 47.5742 46.3848 47.5742 45.6247V11.2299H37.7213C36.9612 11.2299 36.3443 10.613 36.3443 9.85291ZM16.5934 33.0481H25.8956C26.6557 33.0481 27.2726 33.665 27.2726 34.4251C27.2726 35.1852 26.6557 35.8021 25.8956 35.8021H16.5934C15.8324 35.8021 15.2164 35.1852 15.2164 34.4251C15.2164 33.665 15.8324 33.0481 16.5934 33.0481ZM40.6974 41.3101H16.5934C15.8324 41.3101 15.2164 40.6932 15.2164 39.9331C15.2164 39.173 15.8324 38.5561 16.5934 38.5561H40.6974C41.4575 38.5561 42.0744 39.173 42.0744 39.9331C42.0744 40.6932 41.4575 41.3101 40.6974 41.3101ZM40.6974 35.8021H31.3953C30.6343 35.8021 30.0183 35.1852 30.0183 34.4251C30.0183 33.665 30.6343 33.0481 31.3953 33.0481H40.6974C41.4575 33.0481 42.0744 33.665 42.0744 34.4251C42.0744 35.1852 41.4575 35.8021 40.6974 35.8021ZM40.6974 30.1995H31.3953C30.6343 30.1995 30.0183 29.5826 30.0183 28.8225C30.0183 28.0624 30.6343 27.4455 31.3953 27.4455H40.6974C41.4575 27.4455 42.0744 28.0624 42.0744 28.8225C42.0744 29.5826 41.4575 30.1995 40.6974 30.1995ZM42.0744 17.8065C42.0744 18.5666 41.4575 19.1835 40.6974 19.1835H34.1447C33.3846 19.1835 32.7677 18.5666 32.7677 17.8065C32.7677 17.0464 33.3846 16.4295 34.1447 16.4295H40.6974C41.4575 16.4295 42.0744 17.0464 42.0744 17.8065Z" fill="white"/>
<path d="M18.0091 27.9045C20.8126 27.9045 23.4491 26.8112 25.4311 24.8255C29.5226 20.7285 29.5226 14.061 25.4311 9.964C23.4491 7.97836 20.8126 6.88502 18.0091 6.88502C15.2046 6.88502 12.569 7.97836 10.5861 9.964C6.49457 14.061 6.49457 20.7285 10.5861 24.8255C12.569 26.8112 15.2046 27.9045 18.0091 27.9045ZM13.6302 16.2496C14.1681 15.7116 15.0403 15.7116 15.5773 16.2496L16.9883 17.6596L20.4399 14.2088C20.977 13.6709 21.8491 13.6709 22.387 14.2088C22.925 14.7468 22.925 15.618 22.387 16.1559L17.9623 20.5807C17.6933 20.8497 17.3408 20.9846 16.9883 20.9846C16.6357 20.9846 16.2832 20.8497 16.0143 20.5807L13.6302 18.1966C13.0923 17.6587 13.0923 16.7866 13.6302 16.2496Z" fill="white"/>
<path d="M8.63714 26.7717C7.7118 25.8445 6.95169 24.8136 6.35775 23.7157L1.67869 28.4021C0.206215 29.8755 0.206215 32.2724 1.67777 33.7467C2.39198 34.4618 3.34027 34.8547 4.34916 34.8547C5.35896 34.8547 6.30817 34.4618 7.02146 33.7467L11.6978 29.0639C10.5861 28.4599 9.55606 27.6915 8.63714 26.7717Z" fill="white"/>
</svg>
