<svg width="74" height="76" viewBox="0 0 74 76" fill="none" xmlns="http://www.w3.org/2000/svg">
<rect x="0.537109" width="72.9258" height="75.2048" rx="10" fill="url(#paint0_linear_3_920)"/>
<g clip-path="url(#clip0_3_920)">
<path d="M43.4973 37.0252C43.4973 40.3374 40.8122 43.0224 37.5 43.0224C34.1878 43.0224 31.5027 40.3374 31.5027 37.0252C31.5027 33.7129 34.1878 31.0279 37.5 31.0279C40.8122 31.0279 43.4973 33.7129 43.4973 37.0252Z" fill="white"/>
<path d="M59.1238 16.8753C58.0745 15.8268 56.6812 15.25 55.1985 15.25H19.8015C18.3188 15.25 16.9254 15.8268 15.8754 16.8761C14.8268 17.9258 14.25 19.3188 14.25 20.8015V26.7012C14.25 28.1839 14.8267 29.5768 15.876 30.6273C15.876 30.6273 15.876 30.6273 15.876 30.6273M59.1238 16.8753L19.8015 32.5024C18.2524 32.5024 16.7959 31.8996 15.6993 30.8041L15.8762 30.6274C15.8761 30.6274 15.8761 30.6273 15.876 30.6273M59.1238 16.8753C60.1732 17.9257 60.75 19.3187 60.75 20.8015V26.7012C60.75 28.1836 60.1732 29.5769 59.1247 30.6262C58.0742 31.6756 56.6812 32.2524 55.1985 32.2524H55.1548M59.1238 16.8753L55.1548 32.2524M15.876 30.6273C16.9257 31.6759 18.3187 32.2524 19.8015 32.2524H19.8455M15.876 30.6273L19.8455 32.2524M19.8455 32.2524V22.3742C19.8455 21.476 20.5738 20.7473 21.4725 20.7473H53.5279C54.4261 20.7473 55.1548 21.476 55.1548 22.3742V32.2524M19.8455 32.2524H55.1548" fill="white" stroke="url(#paint1_linear_3_920)" stroke-width="0.5"/>
<path d="M24.2928 60.555L24.2926 60.5548C23.5231 59.7863 23.0991 58.7635 23.0991 57.6734V24.0012H51.9006V57.6734C51.9006 58.7635 51.4765 59.7863 50.7059 60.5563L50.7057 60.5565C49.9373 61.3259 48.9144 61.75 47.8243 61.75H27.1757C26.0856 61.75 25.0628 61.326 24.2928 60.555ZM46.5012 37.0252C46.5012 32.0617 42.4635 28.024 37.5 28.024C32.5365 28.024 28.4988 32.0617 28.4988 37.0252C28.4988 41.9887 32.5365 46.0263 37.5 46.0263C42.4635 46.0263 46.5012 41.9887 46.5012 37.0252ZM44.8742 51.6219H30.1258C29.2271 51.6219 28.4988 52.3502 28.4988 53.2488C28.4988 54.147 29.2271 54.8758 30.1258 54.8758H44.8742C45.7729 54.8758 46.5012 54.147 46.5012 53.2488C46.5012 52.3502 45.7728 51.6219 44.8742 51.6219Z" fill="white" stroke="url(#paint2_linear_3_920)" stroke-width="0.5"/>
</g>
<defs>
<linearGradient id="paint0_linear_3_920" x1="-24.1636" y1="1279.69" x2="242.822" y2="1259.28" gradientUnits="userSpaceOnUse">
<stop stop-color="#B191FF"/>
<stop offset="1" stop-color="#ED254E"/>
</linearGradient>
<linearGradient id="paint1_linear_3_920" x1="71.8679" y1="21.7457" x2="6.1413" y2="16.7533" gradientUnits="userSpaceOnUse">
<stop offset="0.09239" stop-color="#B191FF"/>
<stop offset="1" stop-color="#ED254E"/>
</linearGradient>
<linearGradient id="paint2_linear_3_920" x1="58.926" y1="38.4929" x2="17.7326" y2="37.6003" gradientUnits="userSpaceOnUse">
<stop offset="0.09239" stop-color="#B191FF"/>
<stop offset="1" stop-color="#ED254E"/>
</linearGradient>
<clipPath id="clip0_3_920">
<rect width="47" height="47" fill="white" transform="translate(14 15)"/>
</clipPath>
</defs>
</svg>
