<svg width="73" height="76" viewBox="0 0 73 76" fill="none" xmlns="http://www.w3.org/2000/svg">
<rect width="72.9258" height="75.2048" rx="10" fill="url(#paint0_linear_26_24)"/>
<g clip-path="url(#clip0_26_24)">
<path d="M24.3574 16.377C24.3574 15.7539 24.8614 15.25 25.4844 15.25H42.0078C42.6308 15.25 43.1348 15.7539 43.1348 16.377V24.7564C40.1715 23.6867 36.9847 23.1035 33.7461 23.1035C30.4444 23.1035 27.2701 23.706 24.3574 24.7512V16.377ZM32.1191 19.1309C32.1191 20.0294 32.8476 20.7578 33.7461 20.7578C34.6446 20.7578 35.373 20.0294 35.373 19.1309C35.373 18.2321 34.6446 17.5039 33.7461 17.5039C32.8476 17.5039 32.1191 18.2321 32.1191 19.1309Z" fill="white" stroke="url(#paint1_linear_26_24)" stroke-width="0.5"/>
<path d="M52.9762 37.2269L53.0429 37.373H53.2036H58.623C59.2461 37.373 59.75 37.877 59.75 38.5V43.9392C59.75 47.5918 56.6869 50.5508 53.0234 50.5508H51.672H51.5437L51.4689 50.6551C50.1122 52.5463 48.2451 54.3398 46.0098 55.685L45.8887 55.7579V55.8992V60.623C45.8887 61.2461 45.3847 61.75 44.7617 61.75C42.1498 61.75 39.6961 60.6625 37.9152 58.7375L37.824 58.6389L37.6914 58.6605C34.8135 59.1307 32.259 59.0894 29.6556 58.6632L29.3652 58.6157V58.9099V60.623C29.3652 61.2461 28.8613 61.75 28.2383 61.75C23.7303 61.75 19.7827 58.493 18.958 54.0929L18.9414 54.0047L18.8726 53.9472C15.2345 50.9059 13.25 46.8478 13.25 42.6309C13.25 40.7634 13.6418 38.9323 14.4147 37.1885C14.4194 37.1798 14.4235 37.1711 14.4271 37.1623C14.561 36.8632 14.7263 36.5879 14.9002 36.2982C14.9774 36.1697 15.0562 36.0384 15.1348 35.9009L15.2367 35.7225L15.0815 35.588C13.9428 34.6006 13.25 33.1562 13.25 31.6152C13.25 29.3908 14.6583 27.3984 16.7556 26.6577L16.7558 26.6577C17.34 26.4508 17.986 26.7571 18.1927 27.3441L18.1929 27.3447C18.4008 27.9312 18.0938 28.5746 17.5064 28.7815L17.5059 28.7816C16.3088 29.2057 15.5039 30.3448 15.5039 31.6152C15.5039 32.3934 15.8275 33.1078 16.3333 33.6507L16.5263 33.8578L16.7079 33.6407C20.4244 29.1983 26.8122 26.3574 33.7461 26.3574C37.5587 26.3574 41.261 27.2164 44.518 28.8469L44.6649 28.9204L44.7907 28.8147C46.6836 27.2241 49.0444 26.3574 51.5389 26.3574H53.0234C53.4794 26.3574 53.8907 26.6316 54.0644 27.0526L54.0646 27.0531C54.2395 27.4745 54.1428 27.9586 53.8202 28.2812C52.2794 29.822 51.3965 31.9537 51.3965 34.1325V34.4875V34.5683L51.4438 34.6338C52.0837 35.5206 52.5886 36.3778 52.9762 37.2269ZM43.1348 38.5C43.1348 39.3985 43.8632 40.127 44.7617 40.127C45.6602 40.127 46.3887 39.3985 46.3887 38.5C46.3887 37.6013 45.6602 36.873 44.7617 36.873C43.8632 36.873 43.1348 37.6013 43.1348 38.5Z" fill="white" stroke="url(#paint2_linear_26_24)" stroke-width="0.5"/>
</g>
<defs>
<linearGradient id="paint0_linear_26_24" x1="-24.7007" y1="1279.69" x2="242.285" y2="1259.28" gradientUnits="userSpaceOnUse">
<stop stop-color="#B191FF"/>
<stop offset="1" stop-color="#ED254E"/>
</linearGradient>
<linearGradient id="paint1_linear_26_24" x1="47.8423" y1="18.8985" x2="20.8072" y2="17.4411" gradientUnits="userSpaceOnUse">
<stop offset="0.09239" stop-color="#B191FF"/>
<stop offset="1" stop-color="#ED254E"/>
</linearGradient>
<linearGradient id="paint2_linear_26_24" x1="70.8679" y1="39.941" x2="4.85266" y2="37.4959" gradientUnits="userSpaceOnUse">
<stop offset="0.09239" stop-color="#B191FF"/>
<stop offset="1" stop-color="#ED254E"/>
</linearGradient>
<clipPath id="clip0_26_24">
<rect width="47" height="47" fill="white" transform="translate(13 15)"/>
</clipPath>
</defs>
</svg>
