<svg width="73" height="76" viewBox="0 0 73 76" fill="none" xmlns="http://www.w3.org/2000/svg">
<rect x="0.0742188" width="72.9258" height="75.2048" rx="10" fill="url(#paint0_linear_3_935)"/>
<path d="M47.5715 22.4759H55.5742L47.0983 14V22.0028C47.0983 22.2641 47.3101 22.4759 47.5715 22.4759Z" fill="white"/>
<path d="M17.9823 20.5255V15.4449C17.9823 14.8229 18.4873 14.3179 19.1093 14.3179L19.11 14.3179L44.0943 14.2507V23.8529C44.0943 24.7511 44.8231 25.4799 45.7213 25.4799H55.3242V59.6247C55.3242 60.2467 54.8192 60.7517 54.1972 60.7517H54.1967L19.1093 60.8196C19.1092 60.8196 19.109 60.8196 19.1089 60.8196C18.487 60.8194 17.9823 60.3145 17.9823 59.6926V49.0334L22.5457 44.4621C23.6626 44.757 24.824 44.9085 26.009 44.9085C29.6161 44.9085 33.0085 43.5014 35.5569 40.9473C36.1812 40.3221 36.7323 39.6495 37.2086 38.9415H48.6974C49.5956 38.9415 50.3244 38.2127 50.3244 37.3145C50.3244 36.4163 49.5956 35.6875 48.6974 35.6875H38.8078C40.3738 30.9839 39.291 25.5808 35.5569 21.8412L17.9823 20.5255ZM17.9823 20.5255C20.2926 18.8086 23.0794 17.881 26.009 17.881C29.6161 17.881 33.0084 19.2881 35.5569 21.8412L17.9823 20.5255ZM33.8956 46.7981H24.5934C23.6942 46.7981 22.9664 47.527 22.9664 48.4251C22.9664 49.3231 23.6942 50.0521 24.5934 50.0521H33.8956C34.7937 50.0521 35.5226 49.3232 35.5226 48.4251C35.5226 47.5269 34.7937 46.7981 33.8956 46.7981ZM24.5934 55.5601H48.6974C49.5956 55.5601 50.3244 54.8312 50.3244 53.9331C50.3244 53.0349 49.5956 52.3061 48.6974 52.3061H24.5934C23.6942 52.3061 22.9664 53.035 22.9664 53.9331C22.9664 54.8311 23.6942 55.5601 24.5934 55.5601ZM39.3953 50.0521H48.6974C49.5956 50.0521 50.3244 49.3232 50.3244 48.4251C50.3244 47.5269 49.5956 46.7981 48.6974 46.7981H39.3953C38.4961 46.7981 37.7683 47.527 37.7683 48.4251C37.7683 49.3231 38.4961 50.0521 39.3953 50.0521ZM39.3953 44.4495H48.6974C49.5956 44.4495 50.3244 43.7207 50.3244 42.8225C50.3244 41.9243 49.5956 41.1955 48.6974 41.1955H39.3953C38.4961 41.1955 37.7683 41.9244 37.7683 42.8225C37.7683 43.7206 38.4961 44.4495 39.3953 44.4495ZM48.6974 33.4335C49.5956 33.4335 50.3244 32.7047 50.3244 31.8065C50.3244 30.9083 49.5956 30.1795 48.6974 30.1795H42.1447C41.2465 30.1795 40.5177 30.9083 40.5177 31.8065C40.5177 32.7047 41.2465 33.4335 42.1447 33.4335H48.6974Z" fill="white" stroke="url(#paint1_linear_3_935)" stroke-width="0.5"/>
<path d="M33.2542 38.6489L33.2542 38.6489C31.3191 40.5876 28.7462 41.6545 26.0091 41.6545C23.271 41.6545 20.699 40.5876 18.763 38.6489L18.5861 38.8255L18.763 38.6489C14.7689 34.6494 14.7689 28.1401 18.763 24.1407L18.763 24.1406C20.699 22.2019 23.271 21.135 26.0091 21.135C28.7462 21.135 31.3191 22.2019 33.2542 24.1406L33.2542 24.1407C37.2483 28.1401 37.2483 34.6494 33.2542 38.6489ZM23.7542 30.0729C23.1194 29.4371 22.0889 29.4373 21.4534 30.0728C20.8177 30.7076 20.818 31.738 21.4534 32.3734L23.8375 34.7575C24.1551 35.0751 24.5719 35.2346 24.9883 35.2346C25.4046 35.2346 25.8214 35.0751 26.139 34.7575L30.5638 30.3327C31.1994 29.6971 31.1994 28.6676 30.5638 28.0321C29.9283 27.3966 28.8978 27.3963 28.263 28.0322L24.9882 31.3061L23.7542 30.0729C23.7542 30.0729 23.7542 30.0729 23.7542 30.0729Z" fill="white" stroke="url(#paint2_linear_3_935)" stroke-width="0.5"/>
<path d="M16.4602 40.9483L16.4603 40.9484C17.3155 41.8044 18.2655 42.532 19.2876 43.1209L14.8446 47.57L14.8445 47.5701C14.1782 48.2381 13.2927 48.6047 12.3492 48.6047C11.4067 48.6047 10.522 48.2382 9.85466 47.57C8.48055 46.1933 8.48064 43.9545 9.85552 42.5788L9.85561 42.5787L14.3006 38.1267C14.88 39.1365 15.6001 40.0865 16.4602 40.9483Z" fill="white" stroke="url(#paint3_linear_3_935)" stroke-width="0.5"/>
<defs>
<linearGradient id="paint0_linear_3_935" x1="-24.6265" y1="1279.69" x2="242.359" y2="1259.28" gradientUnits="userSpaceOnUse">
<stop stop-color="#B191FF"/>
<stop offset="1" stop-color="#ED254E"/>
</linearGradient>
<linearGradient id="paint1_linear_3_935" x1="64.3244" y1="32.1414" x2="11.1271" y2="30.9317" gradientUnits="userSpaceOnUse">
<stop offset="0.09239" stop-color="#B191FF"/>
<stop offset="1" stop-color="#ED254E"/>
</linearGradient>
<linearGradient id="paint2_linear_3_935" x1="41.3515" y1="28.9863" x2="11.8633" y2="28.1537" gradientUnits="userSpaceOnUse">
<stop offset="0.09239" stop-color="#B191FF"/>
<stop offset="1" stop-color="#ED254E"/>
</linearGradient>
<linearGradient id="paint3_linear_3_935" x1="22.2699" y1="42.0088" x2="6.63702" y2="41.5673" gradientUnits="userSpaceOnUse">
<stop offset="0.09239" stop-color="#B191FF"/>
<stop offset="1" stop-color="#ED254E"/>
</linearGradient>
</defs>
</svg>
