<svg width="47" height="47" viewBox="0 0 47 47" fill="none" xmlns="http://www.w3.org/2000/svg">
<g clip-path="url(#clip0_3_1231)">
<path d="M29.4973 22.0252C29.4973 25.3374 26.8122 28.0224 23.5 28.0224C20.1878 28.0224 17.5027 25.3374 17.5027 22.0252C17.5027 18.7129 20.1878 16.0279 23.5 16.0279C26.8122 16.0279 29.4973 18.7129 29.4973 22.0252Z" fill="white"/>
<path d="M45.3007 1.6986C44.2045 0.603134 42.7476 0 41.1985 0H5.80149C4.25242 0 2.7955 0.603134 1.6986 1.69932C0.603134 2.79586 0 4.25242 0 5.80149V11.7012C0 13.2503 0.603134 14.7069 1.69932 15.8041C2.79586 16.8996 4.25242 17.5024 5.80149 17.5024H6.09553V7.37423C6.09553 6.61404 6.71193 5.99728 7.47248 5.99728H39.5279C40.2881 5.99728 40.9048 6.61404 40.9048 7.37423V17.5024H41.1985C42.7476 17.5024 44.2041 16.8992 45.3014 15.803C46.3969 14.7069 47 13.2499 47 11.7012V5.80149C47 4.25242 46.3969 2.79586 45.3007 1.6986Z" fill="white"/>
<path d="M8.84906 42.6734C8.84906 43.8298 9.29944 44.9163 10.1159 45.7317C10.9328 46.5496 12.0193 47 13.1757 47H33.8243C34.9807 47 36.0672 46.5496 36.8826 45.7331C37.7002 44.9163 38.1506 43.8298 38.1506 42.6734V8.75118H8.84906V42.6734ZM23.5 13.274C28.3254 13.274 32.2512 17.1997 32.2512 22.0252C32.2512 26.8506 28.3254 30.7763 23.5 30.7763C18.6746 30.7763 14.7488 26.8506 14.7488 22.0252C14.7488 17.1997 18.6746 13.274 23.5 13.274ZM16.1258 36.8719H30.8742C31.6348 36.8719 32.2512 37.4883 32.2512 38.2488C32.2512 39.009 31.6348 39.6258 30.8742 39.6258H16.1258C15.3652 39.6258 14.7488 39.009 14.7488 38.2488C14.7488 37.4883 15.3652 36.8719 16.1258 36.8719Z" fill="white"/>
</g>
<defs>
<clipPath id="clip0_3_1231">
<rect width="47" height="47" fill="white"/>
</clipPath>
</defs>
</svg>
