<svg width="47" height="47" viewBox="0 0 47 47" fill="none" xmlns="http://www.w3.org/2000/svg">
<path d="M12.4844 0C11.7233 0 11.1074 0.615865 11.1074 1.37695V10.1089C14.0854 8.99765 17.348 8.35351 20.7461 8.35351C24.0772 8.35351 27.3537 8.97627 30.3848 10.1149V1.37695C30.3848 0.615865 29.7689 0 29.0078 0H12.4844ZM20.7461 5.50781C19.9856 5.50781 19.3691 4.8913 19.3691 4.13086C19.3691 3.37023 19.9856 2.75391 20.7461 2.75391C21.5065 2.75391 22.123 3.37023 22.123 4.13086C22.123 4.8913 21.5065 5.50781 20.7461 5.50781Z" fill="white"/>
<path d="M45.623 22.123H40.2036C39.8083 21.257 39.2947 20.3857 38.6465 19.4875V19.1325C38.6465 17.02 39.503 14.9519 40.9969 13.458C41.3909 13.064 41.5093 12.4723 41.2955 11.9573C41.083 11.4422 40.5801 11.1074 40.0234 11.1074H38.5389C35.9854 11.1074 33.5676 11.9949 31.6299 13.6233C28.3368 11.9747 24.5959 11.1074 20.7461 11.1074C13.7492 11.1074 7.28684 13.9731 3.51619 18.4803C3.04802 17.9778 2.75391 17.3225 2.75391 16.6152C2.75391 15.4507 3.49214 14.406 4.58938 14.0173C5.30742 13.7645 5.68259 12.9779 5.4285 12.2611C5.17569 11.5431 4.38633 11.1692 3.67233 11.422C1.47508 12.198 0 14.2849 0 16.6152C0 18.2315 0.726481 19.7439 1.91773 20.7768C1.67281 21.2054 1.39568 21.6183 1.19547 22.0679C1.19547 22.0693 1.19409 22.0693 1.19409 22.0693C0.40207 23.8497 0 25.7214 0 27.6309C0 31.9298 2.02375 36.0556 5.71224 39.139C6.55935 43.6585 10.6113 47 15.2383 47C15.9994 47 16.6152 46.3841 16.6152 45.623V43.9099C19.2441 44.3403 21.8259 44.382 24.7317 43.9073C26.5591 45.8826 29.079 47 31.7617 47C32.5228 47 33.1387 46.3841 33.1387 45.623V40.8992C35.4045 39.5356 37.2964 37.7183 38.672 35.8008H40.0234C43.8195 35.8008 47 32.7352 47 28.9392V23.5C47 22.7389 46.3841 22.123 45.623 22.123ZM31.7617 24.877C31.0013 24.877 30.3848 24.2604 30.3848 23.5C30.3848 22.7394 31.0013 22.123 31.7617 22.123C32.5222 22.123 33.1387 22.7394 33.1387 23.5C33.1387 24.2604 32.5222 24.877 31.7617 24.877Z" fill="white"/>
</svg>
