<svg width="31" height="24" viewBox="0 0 31 24" fill="none" xmlns="http://www.w3.org/2000/svg">
<path d="M29.7891 10.7891H1.21094C0.542137 10.7891 0 11.3312 0 12C0 12.6688 0.542137 13.2109 1.21094 13.2109H29.7891C30.4579 13.2109 31 12.6688 31 12C31 11.3312 30.4579 10.7891 29.7891 10.7891Z" fill="url(#paint0_linear_3_967)"/>
<path d="M29.7891 1.10156H1.21094C0.542137 1.10156 0 1.6437 0 2.3125C0 2.9813 0.542137 3.52344 1.21094 3.52344H29.7891C30.4579 3.52344 31 2.9813 31 2.3125C31 1.6437 30.4579 1.10156 29.7891 1.10156Z" fill="url(#paint1_linear_3_967)"/>
<path d="M29.7891 20.4766H1.21094C0.542137 20.4766 0 21.0187 0 21.6875C0 22.3563 0.542137 22.8984 1.21094 22.8984H29.7891C30.4579 22.8984 31 22.3563 31 21.6875C31 21.0187 30.4579 20.4766 29.7891 20.4766Z" fill="url(#paint2_linear_3_967)"/>
<defs>
<linearGradient id="paint0_linear_3_967" x1="-10.5" y1="52" x2="46.053" y2="-5.07563" gradientUnits="userSpaceOnUse">
<stop stop-color="#B191FF"/>
<stop offset="1" stop-color="#ED254E"/>
</linearGradient>
<linearGradient id="paint1_linear_3_967" x1="38.1682" y1="2.03499" x2="-0.380431" y2="-11.9217" gradientUnits="userSpaceOnUse">
<stop stop-color="#B191FF"/>
<stop offset="1" stop-color="#ED254E"/>
</linearGradient>
<linearGradient id="paint2_linear_3_967" x1="38.1682" y1="21.41" x2="-0.380431" y2="7.45331" gradientUnits="userSpaceOnUse">
<stop stop-color="#B191FF"/>
<stop offset="1" stop-color="#ED254E"/>
</linearGradient>
</defs>
</svg>
